<?xml version="1.0" standalone="no"?>
<!DOCTYPE svg PUBLIC "-//W3C//DTD SVG 20010904//EN"
 "http://www.w3.org/TR/2001/REC-SVG-20010904/DTD/svg10.dtd">
<svg
 width="100vw" height="100vh" viewBox="0 0 598.000000 688.000000"
 preserveAspectRatio="xMidYMid meet">
<g transform="translate(0.000000,688.000000) scale(0.100000,-0.100000)"
fill="#000000" stroke="none">
<path d="M0 6377 l0 -24 183 -6 c195 -7 329 -24 497 -63 869 -203 1558 -870
1775 -1718 55 -217 69 -333 69 -576 1 -228 -9 -322 -50 -510 -179 -803 -781
-1468 -1569 -1729 -257 -86 -445 -119 -722 -128 l-183 -6 0 -25 0 -25 183 6
c100 4 227 13 282 21 542 79 1032 323 1410 701 368 367 603 834 682 1355 24
161 24 511 0 670 -36 229 -97 441 -181 628 -399 886 -1281 1452 -2263 1452
-112 0 -113 0 -113 -23z"/>
<path d="M0 5737 c0 -23 2 -24 123 -31 539 -29 1016 -242 1365 -611 242 -255
385 -536 450 -880 26 -139 22 -437 -7 -574 -74 -345 -212 -606 -456 -860 -157
-162 -306 -272 -520 -381 -261 -133 -613 -220 -891 -220 -63 0 -64 -1 -64 -26
l0 -27 129 7 c457 24 870 179 1212 454 97 78 249 236 326 340 377 502 447
1162 184 1728 -248 531 -781 937 -1391 1058 -132 26 -305 46 -402 46 -54 0
-58 -2 -58 -23z"/>
</g>
</svg>
