<?xml version="1.0" standalone="no"?>
<!DOCTYPE svg PUBLIC "-//W3C//DTD SVG 20010904//EN"
 "http://www.w3.org/TR/2001/REC-SVG-20010904/DTD/svg10.dtd">
<svg version="1.0" xmlns="http://www.w3.org/2000/svg"
 width="89.000000pt" height="94.000000pt" viewBox="0 0 89.000000 94.000000"
 preserveAspectRatio="xMidYMid meet">
 <defs>
   <linearGradient id="Gradient2" x1="0" x2="1" y1="0" y2="0">
     <stop offset="0%" stop-color="#d4327b"/>
     <stop offset="55%" stop-color="#e95823"/>
     <stop offset="95%" stop-color="#cd2b1e"/>
    </linearGradient>
 </defs>
<g transform="translate(0.000000,94.000000) scale(0.100000,-0.100000)"
fill="url(#Gradient2)" stroke="none">
<path d="M328 801 c-244 -96 -307 -409 -118 -585 77 -73 126 -91 240 -91 76 0
104 4 141 21 l45 21 28 -23 c15 -13 36 -24 47 -24 28 0 75 26 83 45 3 9 6 150
6 314 l0 298 -23 21 c-34 32 -87 29 -121 -5 -17 -17 -30 -23 -34 -16 -26 41
-211 56 -294 24z m255 -33 l47 -20 0 -81 0 -81 -32 32 c-107 103 -279 70 -341
-66 -7 -16 -15 -21 -26 -15 -9 4 -33 7 -53 8 -47 0 -48 12 -9 80 86 151 257
209 414 143z m160 21 c12 -7 25 -17 29 -23 4 -6 8 -84 8 -174 0 -139 -3 -172
-21 -224 -24 -71 -64 -127 -114 -158 -20 -12 -32 -27 -29 -32 4 -6 2 -8 -3 -5
-6 4 -30 0 -53 -8 -111 -39 -250 -7 -336 79 -102 103 -128 276 -41 276 28 0
57 -28 57 -55 0 -71 53 -148 124 -181 57 -26 91 -29 151 -13 48 14 130 91 121
114 -3 9 -2 14 3 11 16 -10 21 37 21 200 0 176 4 190 58 203 2 1 13 -4 25 -10z
m-209 -159 c86 -41 125 -167 77 -246 -70 -115 -235 -123 -306 -16 -104 157 60
344 229 262z"/>
</g>
</svg>
